<svg data-v-fde0c5aa="" xmlns="http://www.w3.org/2000/svg" viewBox="0 0 300 300" class="iconAbove"><!----><defs data-v-fde0c5aa=""><!----></defs><rect data-v-fde0c5aa="" fill="#EFEEEB" x="0" y="0" width="300px" height="300px" class="logo-background-square"></rect><defs data-v-fde0c5aa=""><!----></defs><g data-v-fde0c5aa="" id="a3c58998-0abd-4513-81e9-916c433c48e2" fill="#1F1E1A" transform="matrix(2.7795595195129064,0,0,2.7795595195129064,16.664528444044787,173.84284825832606)"><path d="M1.20 0.71L2.69 0.71L6.30 9.27L9.80 0.71L11.28 0.71L9.80 0.71L11.28 0.71L11.28 10.50L10.33 10.50L10.33 1.69L10.33 1.69Q10.07 2.35 9.77 3.08L9.77 3.08L9.77 3.08Q9.52 3.71 9.20 4.49L9.20 4.49L9.20 4.49Q8.88 5.28 8.54 6.10L8.54 6.10L6.75 10.50L5.94 10.50L2.17 1.69L2.17 10.50L1.20 10.50L1.20 0.71ZM16.18 3.19L16.18 3.19L16.18 3.19Q16.31 3.19 16.53 3.21L16.53 3.21L16.53 3.21Q16.76 3.22 17.02 3.30L17.02 3.30L17.02 3.30Q17.28 3.37 17.54 3.54L17.54 3.54L17.54 3.54Q17.81 3.70 18.02 3.98L18.02 3.98L18.02 3.98Q18.24 4.26 18.38 4.68L18.38 4.68L18.38 4.68Q18.52 5.11 18.52 5.73L18.52 5.73L18.52 10.50L17.77 10.50L17.68 9.35L17.68 9.35Q17.68 9.35 17.56 9.56L17.56 9.56L17.56 9.56Q17.43 9.77 17.16 10.02L17.16 10.02L17.16 10.02Q16.90 10.28 16.48 10.48L16.48 10.48L16.48 10.48Q16.07 10.68 15.48 10.68L15.48 10.68L15.48 10.68Q14.32 10.68 13.66 10.12L13.66 10.12L13.66 10.12Q12.99 9.55 13.06 8.46L13.06 8.46L13.06 8.46Q13.13 7.22 14.22 6.66L14.22 6.66L14.22 6.66Q15.32 6.10 17.63 6.15L17.63 6.15L17.63 5.71L17.63 5.71Q17.63 5.00 17.42 4.63L17.42 4.63L17.42 4.63Q17.21 4.27 16.93 4.12L16.93 4.12L16.93 4.12Q16.65 3.98 16.38 3.97L16.38 3.97L16.38 3.97Q16.11 3.96 16.00 3.96L16.00 3.96L16.00 3.96Q15.48 3.96 15.09 4.06L15.09 4.06L15.09 4.06Q14.70 4.16 14.43 4.27L14.43 4.27L14.43 4.27Q14.11 4.41 13.89 4.56L13.89 4.56L13.89 3.68L13.89 3.68Q14.22 3.56 14.59 3.44L14.59 3.44L14.59 3.44Q14.91 3.35 15.32 3.27L15.32 3.27L15.32 3.27Q15.74 3.19 16.18 3.19ZM15.44 9.93L15.44 9.93L15.44 9.93Q16.21 9.93 16.65 9.65L16.65 9.65L16.65 9.65Q17.09 9.38 17.31 8.97L17.31 8.97L17.31 8.97Q17.53 8.55 17.58 8.09L17.58 8.09L17.58 8.09Q17.63 7.62 17.63 7.21L17.63 7.21L17.63 6.92L16.83 6.92L16.83 6.92Q16.55 6.92 16.07 6.96L16.07 6.96L16.07 6.96Q15.60 7.01 15.14 7.17L15.14 7.17L15.14 7.17Q14.69 7.34 14.36 7.64L14.36 7.64L14.36 7.64Q14.03 7.94 14.03 8.46L14.03 8.46L14.03 8.46Q14.03 9.24 14.43 9.58L14.43 9.58L14.43 9.58Q14.83 9.93 15.44 9.93ZM23.81 3.19L23.81 3.19L23.81 3.19Q24.47 3.19 24.92 3.40L24.92 3.40L24.92 3.40Q25.37 3.61 25.65 4.02L25.65 4.02L25.65 4.02Q25.93 4.42 26.05 5.02L26.05 5.02L26.05 5.02Q26.18 5.61 26.18 6.37L26.18 6.37L26.18 10.50L25.30 10.50L25.30 6.43L25.30 6.43Q25.30 5.15 24.95 4.56L24.95 4.56L24.95 4.56Q24.60 3.96 23.72 3.95L23.72 3.95L23.72 3.95Q23.16 3.95 22.72 4.15L22.72 4.15L22.72 4.15Q22.29 4.35 21.99 4.74L21.99 4.74L21.99 4.74Q21.69 5.12 21.53 5.67L21.53 5.67L21.53 5.67Q21.38 6.22 21.38 6.87L21.38 6.87L21.38 10.50L20.50 10.50L20.50 3.36L21.25 3.36L21.38 4.56L21.38 4.56Q21.71 3.93 22.34 3.56L22.34 3.56L22.34 3.56Q22.97 3.19 23.81 3.19ZM30.72 10.68L30.72 10.68L30.72 10.68Q30.06 10.68 29.61 10.47L29.61 10.47L29.61 10.47Q29.16 10.26 28.88 9.86L28.88 9.86L28.88 9.86Q28.60 9.45 28.48 8.86L28.48 8.86L28.48 8.86Q28.35 8.26 28.35 7.50L28.35 7.50L28.35 3.36L29.23 3.36L29.23 7.45L29.23 7.45Q29.23 8.72 29.58 9.32L29.58 9.32L29.58 9.32Q29.93 9.91 30.81 9.93L30.81 9.93L30.81 9.93Q31.37 9.93 31.81 9.72L31.81 9.72L31.81 9.72Q32.24 9.52 32.54 9.13L32.54 9.13L32.54 9.13Q32.84 8.75 33.00 8.20L33.00 8.20L33.00 8.20Q33.15 7.66 33.15 7L33.15 7L33.15 3.36L34.03 3.36L34.03 10.50L33.28 10.50L33.15 9.31L33.15 9.31Q32.82 9.94 32.19 10.31L32.19 10.31L32.19 10.31Q31.56 10.68 30.72 10.68ZM41.57 7.18L36.64 7.18L36.64 7.18Q36.62 7.95 36.88 8.55L36.88 8.55L36.88 8.55Q36.97 8.81 37.15 9.06L37.15 9.06L37.15 9.06Q37.32 9.31 37.58 9.50L37.58 9.50L37.58 9.50Q37.83 9.69 38.18 9.81L38.18 9.81L38.18 9.81Q38.54 9.93 39.02 9.93L39.02 9.93L39.02 9.93Q39.42 9.93 39.79 9.82L39.79 9.82L39.79 9.82Q40.15 9.72 40.43 9.59L40.43 9.59L40.43 9.59Q40.77 9.44 41.06 9.24L41.06 9.24L41.08 10.14L41.08 10.14Q41.08 10.14 40.92 10.23L40.92 10.23L40.92 10.23Q40.77 10.32 40.51 10.42L40.51 10.42L40.51 10.42Q40.25 10.51 39.89 10.60L39.89 10.60L39.89 10.60Q39.54 10.68 39.14 10.68L39.14 10.68L39.14 10.68Q38.01 10.68 37.32 10.32L37.32 10.32L37.32 10.32Q36.64 9.97 36.26 9.41L36.26 9.41L36.26 9.41Q35.88 8.85 35.76 8.15L35.76 8.15L35.76 8.15Q35.64 7.46 35.64 6.78L35.64 6.78L35.64 6.78Q35.64 6.13 35.84 5.49L35.84 5.49L35.84 5.49Q36.04 4.84 36.42 4.33L36.42 4.33L36.42 4.33Q36.81 3.82 37.38 3.51L37.38 3.51L37.38 3.51Q37.95 3.19 38.72 3.19L38.72 3.19L38.72 3.19Q39.58 3.19 40.13 3.54L40.13 3.54L40.13 3.54Q40.68 3.89 41.00 4.42L41.00 4.42L41.00 4.42Q41.31 4.96 41.44 5.59L41.44 5.59L41.44 5.59Q41.57 6.22 41.57 6.78L41.57 6.78L41.57 7.18ZM36.62 6.43L40.59 6.43L40.59 6.43Q40.59 5.96 40.48 5.52L40.48 5.52L40.48 5.52Q40.38 5.07 40.15 4.72L40.15 4.72L40.15 4.72Q39.93 4.37 39.57 4.16L39.57 4.16L39.57 4.16Q39.21 3.95 38.72 3.95L38.72 3.95L38.72 3.95Q38.23 3.95 37.85 4.17L37.85 4.17L37.85 4.17Q37.46 4.40 37.19 4.75L37.19 4.75L37.19 4.75Q36.92 5.10 36.77 5.54L36.77 5.54L36.77 5.54Q36.62 5.99 36.62 6.43L36.62 6.43ZM45.23 9.84L45.23 10.58L45.23 10.58Q45.23 10.60 44.93 10.64L44.93 10.64L44.93 10.64Q44.63 10.68 44.28 10.68L44.28 10.68L44.28 10.68Q43.93 10.68 43.72 10.58L43.72 10.58L43.72 10.58Q43.51 10.47 43.41 10.26L43.41 10.26L43.41 10.26Q43.30 10.05 43.27 9.75L43.27 9.75L43.27 9.75Q43.25 9.45 43.25 9.04L43.25 9.04L43.25 0.14L44.13 0.14L44.13 9.31L44.13 9.31Q44.13 9.60 44.23 9.76L44.23 9.76L44.23 9.76Q44.34 9.91 44.59 9.91L44.59 9.91L44.59 9.91Q44.73 9.91 44.93 9.89L44.93 9.89L44.93 9.89Q45.12 9.87 45.23 9.84L45.23 9.84ZM51.30 10.50L50.34 10.50L50.34 0.71L51.49 0.71L56.66 9.32L56.66 0.71L57.62 0.71L57.62 10.50L56.36 10.50L51.30 2.07L51.30 10.50ZM60.07 10.50L60.07 9.32L61.21 9.32L61.21 10.50L60.07 10.50ZM68.52 6.06L68.52 9.67L68.52 10.50L67.55 10.50L67.55 0.73L72.52 0.73L72.52 0.73Q72.48 0.98 72.46 1.17L72.46 1.17L72.46 1.17Q72.44 1.36 72.41 1.57L72.41 1.57L68.52 1.57L68.52 5.22L72.20 5.22L72.20 6.06L68.52 6.06ZM76.71 3.19L76.71 3.19L76.71 3.19Q76.83 3.19 77.06 3.21L77.06 3.21L77.06 3.21Q77.28 3.22 77.54 3.30L77.54 3.30L77.54 3.30Q77.80 3.37 78.06 3.54L78.06 3.54L78.06 3.54Q78.33 3.70 78.55 3.98L78.55 3.98L78.55 3.98Q78.76 4.26 78.90 4.68L78.90 4.68L78.90 4.68Q79.04 5.11 79.04 5.73L79.04 5.73L79.04 10.50L78.29 10.50L78.20 9.35L78.20 9.35Q78.20 9.35 78.08 9.56L78.08 9.56L78.08 9.56Q77.95 9.77 77.69 10.02L77.69 10.02L77.69 10.02Q77.42 10.28 77.01 10.48L77.01 10.48L77.01 10.48Q76.59 10.68 76.01 10.68L76.01 10.68L76.01 10.68Q74.84 10.68 74.18 10.12L74.18 10.12L74.18 10.12Q73.51 9.55 73.58 8.46L73.58 8.46L73.58 8.46Q73.65 7.22 74.75 6.66L74.75 6.66L74.75 6.66Q75.84 6.10 78.15 6.15L78.15 6.15L78.15 5.71L78.15 5.71Q78.15 5.00 77.94 4.63L77.94 4.63L77.94 4.63Q77.73 4.27 77.45 4.12L77.45 4.12L77.45 4.12Q77.17 3.98 76.90 3.97L76.90 3.97L76.90 3.97Q76.64 3.96 76.52 3.96L76.52 3.96L76.52 3.96Q76.01 3.96 75.61 4.06L75.61 4.06L75.61 4.06Q75.22 4.16 74.96 4.27L74.96 4.27L74.96 4.27Q74.63 4.41 74.41 4.56L74.41 4.56L74.41 3.68L74.41 3.68Q74.75 3.56 75.11 3.44L75.11 3.44L75.11 3.44Q75.43 3.35 75.84 3.27L75.84 3.27L75.84 3.27Q76.26 3.19 76.71 3.19ZM75.96 9.93L75.96 9.93L75.96 9.93Q76.73 9.93 77.17 9.65L77.17 9.65L77.17 9.65Q77.62 9.38 77.83 8.97L77.83 8.97L77.83 8.97Q78.05 8.55 78.10 8.09L78.10 8.09L78.10 8.09Q78.15 7.62 78.15 7.21L78.15 7.21L78.15 6.92L77.35 6.92L77.35 6.92Q77.07 6.92 76.59 6.96L76.59 6.96L76.59 6.96Q76.12 7.01 75.66 7.17L75.66 7.17L75.66 7.17Q75.21 7.34 74.88 7.64L74.88 7.64L74.88 7.64Q74.55 7.94 74.55 8.46L74.55 8.46L74.55 8.46Q74.55 9.24 74.95 9.58L74.95 9.58L74.95 9.58Q75.35 9.93 75.96 9.93ZM84.21 3.19L84.21 3.19L84.21 3.19Q85.02 3.19 85.58 3.49L85.58 3.49L85.58 3.49Q86.14 3.79 86.49 4.31L86.49 4.31L86.49 4.31Q86.84 4.83 87.00 5.52L87.00 5.52L87.00 5.52Q87.15 6.20 87.15 6.96L87.15 6.96L87.15 6.96Q87.15 7.71 86.95 8.39L86.95 8.39L86.95 8.39Q86.76 9.07 86.39 9.58L86.39 9.58L86.39 9.58Q86.02 10.08 85.47 10.38L85.47 10.38L85.47 10.38Q84.92 10.68 84.21 10.68L84.21 10.68L84.21 10.68Q83.54 10.68 83.10 10.48L83.10 10.48L83.10 10.48Q82.67 10.28 82.39 10.02L82.39 10.02L82.39 10.02Q82.07 9.73 81.87 9.35L81.87 9.35L81.87 9.37L81.75 10.50L80.99 10.50L80.99 0L81.87 0L81.87 4.56L81.87 4.56Q81.87 4.56 81.99 4.35L81.99 4.35L81.99 4.35Q82.11 4.14 82.39 3.88L82.39 3.88L82.39 3.88Q82.67 3.63 83.11 3.41L83.11 3.41L83.11 3.41Q83.55 3.19 84.21 3.19ZM84.14 9.91L84.14 9.91L84.14 9.91Q84.56 9.91 84.93 9.73L84.93 9.73L84.93 9.73Q85.30 9.55 85.58 9.18L85.58 9.18L85.58 9.18Q85.86 8.81 86.02 8.25L86.02 8.25L86.02 8.25Q86.18 7.70 86.18 6.94L86.18 6.94L86.18 6.94Q86.18 6.19 86.02 5.63L86.02 5.63L86.02 5.63Q85.86 5.07 85.58 4.69L85.58 4.69L85.58 4.69Q85.30 4.31 84.93 4.13L84.93 4.13L84.93 4.13Q84.56 3.95 84.14 3.95L84.14 3.95L84.14 3.95Q83.71 3.95 83.29 4.09L83.29 4.09L83.29 4.09Q82.88 4.24 82.56 4.59L82.56 4.59L82.56 4.59Q82.25 4.94 82.06 5.52L82.06 5.52L82.06 5.52Q81.87 6.09 81.87 6.94L81.87 6.94L81.87 6.94Q81.87 7.73 82.04 8.29L82.04 8.29L82.04 8.29Q82.21 8.85 82.51 9.21L82.51 9.21L82.51 9.21Q82.81 9.56 83.23 9.74L83.23 9.74L83.23 9.74Q83.65 9.91 84.14 9.91ZM92.19 3.29L92.19 4.20L92.19 4.20Q92.05 4.19 91.92 4.16L91.92 4.16L91.92 4.16Q91.81 4.14 91.71 4.13L91.71 4.13L91.71 4.13Q91.60 4.12 91.56 4.12L91.56 4.12L91.56 4.12Q91.01 4.12 90.67 4.40L90.67 4.40L90.67 4.40Q90.33 4.68 90.12 5.10L90.12 5.10L90.12 5.10Q89.92 5.53 89.84 6.03L89.84 6.03L89.84 6.03Q89.77 6.54 89.77 6.99L89.77 6.99L89.77 10.50L88.89 10.50L88.89 3.36L89.57 3.36L89.73 4.75L89.73 4.75Q89.88 4.40 90.07 4.06L90.07 4.06L90.07 4.06Q90.26 3.72 90.54 3.51L90.54 3.51L90.54 3.51Q90.82 3.29 91.22 3.21L91.22 3.21L91.22 3.21Q91.62 3.14 92.19 3.29L92.19 3.29ZM94.58 3.36L94.58 10.50L93.70 10.50L93.70 3.36L94.58 3.36ZM94.74 0.97L94.74 0.97L94.74 0.97Q94.74 1.20 94.57 1.37L94.57 1.37L94.57 1.37Q94.40 1.54 94.16 1.54L94.16 1.54L94.16 1.54Q93.93 1.54 93.74 1.37L93.74 1.37L93.74 1.37Q93.56 1.20 93.56 0.97L93.56 0.97L93.56 0.97Q93.56 0.73 93.74 0.55L93.74 0.55L93.74 0.55Q93.93 0.36 94.16 0.36L94.16 0.36L94.16 0.36Q94.40 0.36 94.57 0.55L94.57 0.55L94.57 0.55Q94.74 0.73 94.74 0.97Z"></path></g><defs data-v-fde0c5aa=""><linearGradient data-v-fde0c5aa="" gradientTransform="rotate(25)" id="69792e31-c2da-4b91-b357-18ba125f6aa1" x1="0%" y1="0%" x2="100%" y2="0%"><stop data-v-fde0c5aa="" offset="0%" stop-color="#0978A6" stop-opacity="1"></stop><stop data-v-fde0c5aa="" offset="100%" stop-color="#FB9447" stop-opacity="1"></stop></linearGradient></defs><g data-v-fde0c5aa="" id="d3a3fc50-12d0-401f-9533-a14d6b8a3dd0" stroke="url(#69792e31-c2da-4b91-b357-18ba125f6aa1)" fill="none" transform="matrix(0.13314957130743366,0,0,0.13314957130743366,110.33474250434539,92.92967683141426)"><style>.st0{display:none}.st2{display:inline}.st3{stroke:#000;stroke-width:29;stroke-linejoin:round}.st3,.st5,.st8,.st9{fill:none;stroke-linecap:round}.st5{stroke:#000;stroke-width:21;stroke-linejoin:round;stroke-miterlimit:10}.st8,.st9{display:inline}.st8{stroke:#000;stroke-miterlimit:10;stroke-width:16}.st9{stroke-width:20;stroke-linejoin:round}.st10,.st11,.st9{stroke:#000;stroke-miterlimit:10}.st10{display:inline;fill:none;stroke-linecap:round;stroke-width:20}.st11{stroke-width:17;stroke-linejoin:round}.st11,.st12,.st13{fill:none;stroke-linecap:round}.st12{stroke:#000;stroke-linejoin:round;stroke-miterlimit:10;stroke-width:6}.st13{display:none;stroke-width:12}.st13,.st16,.st17{stroke:#000;stroke-linejoin:round;stroke-miterlimit:10}.st16{display:none;fill:none;stroke-linecap:round;stroke-width:8}.st17{stroke-width:5}</style><g class="st0"><path d="M368 343.9l123.9.5c41.3 0 74.8-33.5 74.8-74.8s-33.5-74.8-74.8-74.8c-9.4 0-18.3 1.7-26.6 4.9l-.5.9C464.8 105.9 388 29 293.2 29c-65.1 0-121.8 36.3-150.9 89.8l-3.7 7.2C78.6 126 30 174.6 30 234.6S78.7 343 138.6 343l76.4.3" stroke-width="28" stroke-linecap="round" stroke-linejoin="round" stroke-miterlimit="10"></path><g class="st2"><path class="st3" d="M266 243.7v162.9"></path><path d="M215.4 391.8l50.6 87.6 50.6-87.6z"></path></g><g class="st2"><path class="st3" d="M310 359.2v-163"></path><path d="M360.6 211L310 123.4 259.4 211z"></path></g></g><g class="st0"><path d="M173.7 403.4c0-52.8-53.1-73.9-53.1-73.9 20.6-7.3 35.4-27 35.4-50.1 0-29.3-23.8-53.1-53.1-53.1s-53.1 23.8-53.1 53.1c0 23.1 14.8 42.8 35.4 50.1 0 0-53.1 21.1-53.1 73.9" stroke="#000" stroke-width="16" stroke-linecap="round" stroke-linejoin="round" stroke-miterlimit="10"></path><g class="st2"><path class="st5" d="M545.6 66.9v265.6H191.4M120.5 190.8V66.9M102.8 31.5h460.5v35.4H102.8z"></path><g><path stroke="#000" stroke-width="15" stroke-linecap="round" stroke-linejoin="round" d="M333.1 332.5V368"></path><circle cx="333.1" cy="368" r="12.4"></circle></g></g><path class="st8" d="M170.9 106.2h327.6M217.3 265.6h235.6M170.5 212.5h327.6M171.7 159.4h327.6"></path></g><g class="st0"><path class="st9" d="M119.1 97H71.3c-29.1 0-53 26.9-53 59.7v93.7c0 32.8 23.8 59.7 53 59.7h31.4l-.5 68.1 78.1-68.1h84.5c14.9 0 28.4-7 38.1-18.3"></path><path class="st9" d="M504.4 264.8h-43.5l.8 86.4-108-86.4H232c-40.3 0-73.3-31.5-73.3-73.9V95.1c0-42.4 33-77.1 73.3-77.1h272.4c40.3 0 73.3 34.7 73.3 77.1v95.7c0 42.5-33 74-73.3 74z"></path><path class="st10" d="M223.8 75.6h303.7M222.7 205.3h218.4M222.7 162h303.8M223.8 118.8h303.7"></path></g><path class="st11" d="M529.6 315.8H66.1c-6.6 0-12-5.4-12-12V38.6c0-6.6 5.4-12 12-12h463.6c6.6 0 12 5.4 12 12v265.2c-.1 6.6-5.5 12-12.1 12zM297.9 319v56.1M185.8 380.5h224.1M465.3 472.5h-330l22.3-52.1h276.7z"></path><path class="st12" d="M175.9 438.7h190.4M170.5 454.1h195.8M397.5 438.7H425M401.9 454.1H433"></path><path class="st13" d="M254.3 176.8h85.1L350 113H233"></path><path class="st13" d="M179.9 102.4h31.9l31.9 106.3h95.7"></path><path class="st16" d="M255.9 240.6h-3.3c-4.9 0-9-4.1-9-9v-3.3c0-4.9 4-9 9-9h3.3c4.9 0 9 4 9 9v3.3c0 5-4 9-9 9zM330.4 240.6h-3.3c-4.9 0-9-4.1-9-9v-3.3c0-4.9 4-9 9-9h3.3c5 0 9 4 9 9v3.3c0 5-4.1 9-9 9z"></path><g><path class="st17" d="M204.3 168.5l61.7-31.8v9.2L214 172v.3l52 26.1v9.2l-61.7-31.8v-7.3zM274.7 212.8l37.1-96.4h9l-37.2 96.4h-8.9zM390.9 175.8l-61.7 31.7v-9.2l52.4-26.1v-.3l-52.4-26.1v-9.2l61.7 31.7v7.5z"></path></g><g class="st0"><path d="M298.1 558.9h-.1c-30.6 0-60.7-5.1-89.3-15.3l7.4-20.8c26.2 9.3 53.8 14 81.9 14l.1 22.1zm114.7-25.8l-9.5-19.9c25.2-12 48.1-28.2 68-48.1l15.6 15.6c-21.7 21.6-46.6 39.3-74.1 52.4zm-303.5-52.2c-21.6-21.6-39.3-46.5-52.4-74l19.9-9.5c12 25.2 28.2 48.1 48.1 67.9l-15.6 15.6zm440.4-99.5L529 374c9.3-26.3 14.1-53.9 14.1-82.1v-.5h22v.5c-.1 30.7-5.3 60.8-15.4 89.5zM53 292.2H31v-.3c0-30.6 5.1-60.6 15.3-89.2l20.8 7.4c-9.3 26.2-14 53.7-14 81.8v.3zm466.1-105.9c-12.1-25.2-28.3-48.1-48.2-67.9l15.5-15.6c21.7 21.6 39.3 46.5 52.5 74l-19.8 9.5zm-394.5-67.4L109 103.4c21.6-21.7 46.5-39.3 74-52.4l9.5 19.9c-25.3 12-48.1 28.1-67.9 48zm255.1-58C353.5 51.7 326 47 298 47h-.4V25h.3c30.6 0 60.6 5.1 89.1 15.2l-7.3 20.7zM379.7 488.9c-22.7 9.4-46.4 14.8-70.7 16l-.9-17.6c22.2-1.2 44-6.1 64.8-14.7l6.8 16.3zm76.7-54.1L443.3 423c14.9-16.6 26.9-35.5 35.5-56.2l16.3 6.7c-9.4 22.6-22.4 43.2-38.7 61.3zM216.5 489c-22.6-9.3-43.2-22.3-61.3-38.6l11.8-13.1c16.6 14.9 35.5 26.9 56.3 35.4l-6.8 16.3zM511 281l-17.6.9c-1.1-22.3-6.1-44.1-14.7-64.9l-.2-.4 16.3-6.7.2.4c9.4 22.7 14.8 46.4 16 70.7zm-393.7 86l-16.3 6.7-.1-.2c-9.4-22.6-14.7-46.3-16-70.5l17.6-.9c1.2 22.2 6.1 43.9 14.7 64.7l.1.2zm311.6-220.6c-16.6-14.9-35.6-26.8-56.3-35.4l6.7-16.3c22.6 9.3 43.2 22.3 61.3 38.5l-11.7 13.2zm-311.8 70.9l-16.3-6.7c9.3-22.6 22.3-43.2 38.6-61.3l13.1 11.8c-14.9 16.5-26.8 35.4-35.4 56.2zM287.7 96.5c-22.1 1.2-43.9 6.1-64.6 14.7l-.3.1-6.7-16.3.2-.1c22.6-9.4 46.3-14.7 70.4-16l1 17.6zM298.1 458.4c-19.2 0-37.9-3.2-55.8-9.5l4.6-12.9c16.4 5.8 33.5 8.7 51.1 8.7l.1 13.7zm71.5-16.1l-5.9-12.4c15.7-7.5 30-17.6 42.4-30l9.7 9.7c-13.6 13.5-29.1 24.5-46.2 32.7zm-189.2-32.6c-13.5-13.5-24.5-29-32.7-46.1l12.4-5.9c7.5 15.7 17.6 30 30 42.3l-9.7 9.7zm274.5-62l-12.9-4.6c5.8-16.4 8.8-33.6 8.8-51.2v-.3h13.7v.3c0 19.2-3.3 37.9-9.6 55.8zm-309.6-55.6h-13.7v-.2c0-19.1 3.2-37.8 9.5-55.6l12.9 4.6c-5.8 16.3-8.7 33.5-8.7 51v.2zm290.5-66c-7.5-15.7-17.6-30-30-42.3l9.7-9.7c13.5 13.5 24.5 29 32.7 46.1l-12.4 5.9zm-245.9-42l-9.7-9.7c13.5-13.5 29-24.5 46.1-32.7l5.9 12.4c-15.7 7.5-30 17.6-42.3 30zm159-36.2c-16.3-5.8-33.5-8.7-50.9-8.7h-.2v-13.7h.2c19.1 0 37.8 3.2 55.6 9.5l-4.7 12.9zM348.9 414.8c-14.2 5.9-29 9.2-44.1 10l-.6-11c13.8-.7 27.4-3.8 40.4-9.2l4.3 10.2zm47.9-33.8l-8.1-7.3c9.3-10.3 16.8-22.1 22.1-35.1l10.1 4.2c-5.9 14.1-14 26.9-24.1 38.2zm-149.6 33.8c-14.1-5.8-26.9-13.9-38.2-24.1l7.3-8.2c10.4 9.3 22.2 16.7 35.1 22.1l-4.2 10.2zm183.6-129.7l-11 .6c-.7-13.9-3.8-27.5-9.2-40.4l-.1-.2 10.1-4.2.1.2c6 14.1 9.3 28.9 10.1 44zm-245.5 53.6l-10.1 4.2-.1-.1c-5.8-14.1-9.2-28.9-10-43.9l11-.6c.7 13.8 3.8 27.4 9.2 40.3v.1zm194.3-137.5c-10.4-9.3-22.2-16.7-35.1-22l4.2-10.1c14.1 5.8 26.9 13.9 38.2 24l-7.3 8.1zm-194.4 44.2l-10.1-4.2c5.8-14.1 13.9-26.9 24-38.2l8.2 7.3c-9.3 10.4-16.7 22.2-22.1 35.1zm106.4-75.3c-13.8.7-27.3 3.8-40.2 9.2l-.2.1-4.2-10.1.1-.1c14.1-5.8 28.8-9.2 43.9-10l.6 10.9zM298.1 393.4c-11.7 0-23.1-2-34-5.8l2.8-7.9c10 3.5 20.4 5.3 31.1 5.3l.1 8.4zm43.5-9.9L338 376c9.6-4.6 18.3-10.7 25.8-18.3l5.9 5.9c-8.2 8.3-17.6 15-28.1 19.9zm-115.3-19.8c-8.2-8.2-14.9-17.7-19.9-28.1l7.5-3.6c4.6 9.6 10.7 18.3 18.3 25.8l-5.9 5.9zm167.3-37.8l-7.9-2.8c3.5-10 5.3-20.5 5.3-31.2v-.2h8.4v.2c0 11.7-1.9 23.1-5.8 34zM204.9 292h-8.4v-.1c0-11.6 1.9-23 5.8-33.9l7.9 2.8c-3.5 10-5.3 20.4-5.3 31.1v.1zM382 251.8c-4.6-9.6-10.7-18.3-18.3-25.8l5.9-5.9c8.2 8.2 14.9 17.7 19.9 28.1l-7.5 3.6zm-149.9-25.6l-5.9-5.9c8.2-8.2 17.7-14.9 28.1-19.9l3.6 7.5c-9.6 4.6-18.3 10.8-25.8 18.3zm96.9-22c-9.9-3.5-20.4-5.3-31-5.3h-.2v-8.4h.1c11.6 0 23 1.9 33.9 5.8l-2.8 7.9zM329 366.8c-8.6 3.6-17.6 5.6-26.8 6.1l-.3-6.7c8.4-.4 16.7-2.3 24.6-5.6l2.5 6.2zm29.2-20.6l-5-4.5c5.7-6.3 10.2-13.5 13.5-21.4l6.2 2.6c-3.6 8.6-8.5 16.4-14.7 23.3zM267 366.8c-8.6-3.5-16.4-8.5-23.3-14.7l4.5-5c6.3 5.7 13.5 10.2 21.4 13.5l-2.6 6.2zm111.9-79l-6.7.3c-.4-8.5-2.3-16.7-5.6-24.6l-.1-.1 6.2-2.6.1.1c3.6 8.6 5.7 17.7 6.1 26.9zm-149.6 32.7l-6.2 2.6v-.1c-3.6-8.6-5.6-17.6-6.1-26.8l6.7-.3c.5 8.4 2.4 16.6 5.6 24.6zm118.4-83.9c-6.3-5.7-13.5-10.2-21.4-13.4l2.5-6.2c8.6 3.5 16.4 8.5 23.3 14.6l-4.4 5zm-118.4 27l-6.2-2.5c3.5-8.6 8.5-16.4 14.7-23.3l5 4.5a70.72 70.72 0 0 0-13.5 21.3zm64.8-45.9c-8.4.4-16.7 2.3-24.5 5.6h-.1l-2.6-6.2h.1c8.6-3.6 17.6-5.6 26.7-6.1l.4 6.7zM298 355.2c-7.3 0-14.4-1.2-21.2-3.6l1.7-4.9c6.2 2.2 12.7 3.3 19.4 3.3l.1 5.2zm27.2-6.1l-2.2-4.7c6-2.9 11.4-6.7 16.1-11.4l3.7 3.7c-5.2 5.1-11.1 9.2-17.6 12.4zm-71.9-12.4c-5.1-5.1-9.3-11-12.4-17.5l4.7-2.2c2.9 6 6.7 11.4 11.4 16.1l-3.7 3.6zm104.3-23.6l-4.9-1.7c2.2-6.2 3.3-12.8 3.3-19.4v-.1h5.2v.1c0 7.2-1.2 14.3-3.6 21.1zM240 292h-5.2v-.1c0-7.2 1.2-14.3 3.6-21.1l4.9 1.7c-2.2 6.3-3.3 12.8-3.3 19.5zm110.4-25.1c-2.9-6-6.7-11.4-11.4-16.1l3.7-3.7c5.1 5.1 9.3 11 12.4 17.5l-4.7 2.3zM256.9 251l-3.7-3.7c5.1-5.1 11-9.3 17.5-12.4l2.2 4.7c-5.9 2.8-11.3 6.7-16 11.4zm60.4-13.8c-6.2-2.2-12.7-3.3-19.3-3.3h-.1v-5.2h.1c7.3 0 14.3 1.2 21.1 3.6l-1.8 4.9zM317.4 338.6c-5.4 2.2-11 3.5-16.7 3.8l-.2-4.2c5.3-.3 10.4-1.4 15.3-3.5l1.6 3.9zm18.1-12.8l-3.1-2.8c3.5-3.9 6.4-8.4 8.4-13.3l3.8 1.6c-2.1 5.3-5.2 10.2-9.1 14.5zm-56.8 12.8c-5.3-2.2-10.2-5.3-14.5-9.1l2.8-3.1c3.9 3.5 8.4 6.4 13.3 8.4l-1.6 3.8zm69.8-49.2l-4.2.2c-.3-5.3-1.4-10.4-3.5-15.4v-.1l3.8-1.6v.1c2.3 5.4 3.6 11 3.9 16.8zm-93.3 20.3l-3.8 1.6c-2.2-5.3-3.5-11-3.8-16.7l4.2-.2c.2 5.2 1.3 10.4 3.4 15.3zm73.8-52.2c-3.9-3.5-8.4-6.4-13.3-8.4l1.6-3.9c5.3 2.2 10.2 5.3 14.5 9.1l-2.8 3.2zm-73.8 16.8l-3.9-1.6c2.2-5.3 5.3-10.2 9.1-14.5l3.1 2.8c-3.5 3.9-6.3 8.3-8.3 13.3zm40.4-28.7c-5.2.3-10.4 1.4-15.3 3.5h-.1l-1.6-3.8h.1c5.4-2.2 11-3.5 16.7-3.8l.2 4.1zM298 331c-4.5 0-8.9-.8-13.1-2.2l1.1-3c3.8 1.4 7.9 2.1 12 2.1v3.1zm16.8-3.8l-1.4-2.9c3.7-1.8 7-4.1 9.9-7l2.3 2.3c-3.2 3.1-6.8 5.7-10.8 7.6zm-44.4-7.7c-3.2-3.2-5.7-6.8-7.7-10.8l2.9-1.4c1.8 3.7 4.1 7 7 9.9l-2.2 2.3zm64.4-14.5l-3-1.1c1.4-3.8 2.1-7.9 2.1-12v-.1h3.2v.1c-.1 4.5-.8 8.9-2.3 13.1zm-72.6-13H259c0-4.5.7-8.9 2.2-13l3 1.1c-1.3 3.7-2 7.7-2 11.9zm68.1-15.5c-1.8-3.7-4.1-7-7-9.9l2.3-2.3c3.2 3.2 5.7 6.8 7.7 10.8l-3 1.4zm-57.6-9.8l-2.3-2.3c3.2-3.2 6.8-5.7 10.8-7.7l1.4 2.9c-3.7 1.8-7 4.2-9.9 7.1zm37.2-8.5c-3.8-1.4-7.8-2-11.9-2h-.1V253c4.5 0 8.9.7 13 2.2l-1 3zM309.9 320.7c-3.3 1.4-6.8 2.2-10.3 2.3l-.1-2.6c3.2-.2 6.4-.9 9.5-2.1l.9 2.4zm11.2-7.9l-1.9-1.7c2.2-2.4 3.9-5.2 5.2-8.2l2.4 1c-1.4 3.3-3.3 6.3-5.7 8.9zm-35 7.9c-3.3-1.4-6.3-3.3-9-5.6l1.7-1.9c2.4 2.2 5.2 3.9 8.2 5.2l-.9 2.3zm43-30.4l-2.6.1c-.2-3.3-.9-6.4-2.1-9.5v-.1l2.4-1v.1c1.4 3.4 2.1 6.9 2.3 10.4zm-57.5 12.6l-2.4 1c-1.4-3.3-2.2-6.8-2.3-10.3l2.6-.1c.1 3.2.8 6.4 2.1 9.4zm45.5-32.2c-2.4-2.2-5.2-3.9-8.2-5.2l1-2.4c3.3 1.4 6.3 3.3 9 5.6l-1.8 2zM271.6 281l-2.4-1c1.4-3.3 3.3-6.3 5.6-9l1.9 1.7c-2.1 2.5-3.9 5.3-5.1 8.3zm24.9-17.6c-3.2.2-6.4.9-9.4 2.1l-1-2.4c3.3-1.4 6.8-2.2 10.3-2.3l.1 2.6zM298 316.3c-2.8 0-5.5-.5-8.1-1.4l.7-1.9c2.4.8 4.9 1.3 7.5 1.3l-.1 2zm10.5-2.4l-.9-1.8c2.3-1.1 4.4-2.6 6.2-4.4l1.4 1.4c-2 2-4.2 3.6-6.7 4.8zm-27.7-4.8c-2-2-3.6-4.2-4.8-6.7l1.8-.9c1.1 2.3 2.6 4.4 4.4 6.2l-1.4 1.4zm40.1-9l-1.9-.7c.9-2.4 1.3-4.9 1.3-7.5h2c0 2.8-.4 5.6-1.4 8.2zm-45.2-8.1h-2c0-2.8.5-5.5 1.4-8.1l1.9.7c-.9 2.3-1.3 4.8-1.3 7.4zm42.4-9.7c-1.1-2.3-2.6-4.4-4.4-6.2l1.4-1.4c2 2 3.6 4.2 4.8 6.7l-1.8.9zm-35.9-6.1l-1.4-1.4c2-2 4.2-3.6 6.7-4.8l.9 1.8c-2.3 1.1-4.4 2.6-6.2 4.4zm23.2-5.3c-2.4-.8-4.9-1.3-7.4-1.3v-2c2.8 0 5.5.5 8.1 1.4l-.7 1.9zM305.4 309.9c-2.1.9-4.2 1.3-6.4 1.5l-.1-1.6c2-.1 4-.6 5.9-1.3l.6 1.4zm7-4.9l-1.2-1.1c1.4-1.5 2.4-3.2 3.2-5.1l1.5.6c-.8 2-2 3.9-3.5 5.6zm-21.8 4.9c-2.1-.9-3.9-2-5.6-3.5l1.1-1.2c1.5 1.4 3.2 2.4 5.1 3.2l-.6 1.5zm26.8-19l-1.6.1c-.1-2-.6-4-1.3-5.9l1.5-.6c.8 2.1 1.3 4.2 1.4 6.4zm-35.9 7.9l-1.5.6c-.9-2.1-1.3-4.2-1.5-6.4l1.6-.1c.2 2 .6 4 1.4 5.9zm28.4-20.1c-1.5-1.4-3.2-2.4-5.1-3.2l.6-1.5c2.1.8 3.9 2 5.6 3.5l-1.1 1.2zm-28.4 6.4l-1.5-.6c.8-2.1 2-3.9 3.5-5.6l1.2 1.1c-1.3 1.5-2.4 3.3-3.2 5.1zm15.6-11c-2 .1-4 .6-5.9 1.3l-.6-1.5c2.1-.9 4.2-1.3 6.4-1.5l.1 1.7zM298 306.8c-1.7 0-3.4-.3-5-.8l.4-1.2c1.5.5 3 .8 4.5.8l.1 1.2zm6.4-1.5l-.5-1.1c1.4-.7 2.7-1.6 3.8-2.7l.9.9c-1.3 1.2-2.7 2.2-4.2 2.9zm-16.9-2.9c-1.2-1.2-2.2-2.6-2.9-4.1l1.1-.5c.7 1.4 1.6 2.7 2.7 3.8l-.9.8zm24.5-5.5l-1.2-.4c.5-1.5.8-3 .8-4.6h1.2c0 1.7-.3 3.4-.8 5zm-27.6-4.9h-1.2c0-1.7.3-3.4.8-4.9l1.2.4c-.5 1.4-.8 2.9-.8 4.5zm25.9-5.9c-.7-1.4-1.6-2.7-2.7-3.8l.9-.9c1.2 1.2 2.2 2.6 2.9 4.1l-1.1.6zm-21.9-3.8l-.9-.9c1.2-1.2 2.6-2.2 4.1-2.9l.5 1.1c-1.4.7-2.6 1.6-3.7 2.7zm14.1-3.2c-1.5-.5-3-.8-4.5-.8v-1.2c1.7 0 3.4.3 4.9.8l-.4 1.2zM302.5 302.9c-1.3.5-2.6.8-3.9.9l-.1-1c1.2-.1 2.4-.3 3.6-.8l.4.9zm4.3-3l-.7-.7c.8-.9 1.5-2 2-3.1l.9.4c-.6 1.2-1.3 2.4-2.2 3.4zm-13.3 3c-1.3-.5-2.4-1.2-3.4-2.1l.7-.7c.9.8 2 1.5 3.1 2l-.4.8zm16.3-11.6l-1 .1c-.1-1.2-.3-2.4-.8-3.6l.9-.4c.6 1.3.9 2.6.9 3.9zm-21.8 4.8l-.9.4c-.5-1.3-.8-2.6-.9-3.9l1-.1c0 1.2.3 2.4.8 3.6zm17.3-12.2c-.9-.8-2-1.5-3.1-2l.4-.9c1.3.5 2.4 1.2 3.4 2.1l-.7.8zm-17.3 3.9l-.9-.4c.5-1.3 1.2-2.4 2.1-3.4l.7.7c-.8.9-1.5 1.9-1.9 3.1zm9.4-6.7c-1.2.1-2.4.3-3.6.8l-.4-.9c1.3-.5 2.6-.8 3.9-.9l.1 1zM298 301.2c-1.1 0-2.1-.2-3.1-.5l.3-.7c.9.3 1.9.5 2.8.5v.7zm4-.9l-.3-.7c.9-.4 1.7-1 2.4-1.7l.5.5c-.8.8-1.7 1.4-2.6 1.9zm-10.5-1.8c-.7-.7-1.4-1.6-1.8-2.6l.7-.3c.4.9 1 1.7 1.7 2.4l-.6.5zm15.2-3.5l-.7-.3c.3-.9.5-1.9.5-2.8h.8c-.1 1.1-.2 2.1-.6 3.1zm-17.2-3.1h-.8c0-1.1.2-2.1.5-3.1l.7.3c-.2.9-.4 1.9-.4 2.8zm16.2-3.6c-.4-.9-1-1.7-1.7-2.3l.5-.5c.7.7 1.4 1.6 1.8 2.6l-.6.2zM292 286l-.5-.5c.7-.7 1.6-1.4 2.6-1.8l.3.7c-.9.3-1.7.9-2.4 1.6zm8.8-2.1c-.9-.3-1.9-.5-2.8-.5v-.8c1.1 0 2.1.2 3.1.5l-.3.8zM300.8 298.8c-.8.3-1.6.5-2.4.6v-.6c.8 0 1.5-.2 2.2-.5l.2.5zm2.7-1.9l-.5-.4c.5-.6.9-1.2 1.2-1.9l.6.2c-.3.7-.8 1.5-1.3 2.1zm-8.3 1.9c-.8-.3-1.5-.8-2.1-1.3l.4-.5c.6.5 1.2.9 1.9 1.2l-.2.6zm10.2-7.2h-.6c0-.8-.2-1.5-.5-2.2l.6-.2c.2.7.4 1.5.5 2.4zm-13.7 2.9l-.6.2c-.3-.8-.5-1.6-.6-2.4h.6c.2.8.3 1.5.6 2.2zm10.8-7.6c-.6-.5-1.2-.9-1.9-1.2l.2-.6c.8.3 1.5.8 2.1 1.3l-.4.5zm-10.8 2.5l-.6-.2c.3-.8.8-1.5 1.3-2.1l.5.4c-.5.5-.9 1.1-1.2 1.9zm5.9-4.2c-.8 0-1.5.2-2.2.5l-.2-.6c.8-.3 1.6-.5 2.4-.6v.7z"></path></g><g class="st0" stroke="#000" stroke-linecap="round" stroke-miterlimit="10"><path d="M233.2 347c-88.7 0-161.2-73.3-162-162-.9-91.5 73.4-165.8 164.9-165 89.4.8 162.3 74.4 162.1 163.8-.1 43.5-17.1 83-44.9 112.2l167.6 162.4c6.5 6.3 6.3 16.8-.4 22.8l-6.6 6c-6.1 5.5-15.3 5.4-21.2-.2L323 324.9S307.3 347 233.2 347z" stroke-width="23" stroke-linejoin="round"></path><path d="M320.5 94.9c-48.5-48.5-127.1-48.5-175.6 0-8.4 8.4-15.4 17.7-20.9 27.6" stroke-width="12"></path></g></g><!----></svg>